<?xml version="1.0" encoding="utf-8"?>
<!-- Generator: Adobe Illustrator 15.0.2, SVG Export Plug-In . SVG Version: 6.00 Build 0)  -->
<!DOCTYPE svg PUBLIC "-//W3C//DTD SVG 1.1//EN" "http://www.w3.org/Graphics/SVG/1.1/DTD/svg11.dtd">
<svg version="1.1" id="angry_1_" xmlns="http://www.w3.org/2000/svg" xmlns:xlink="http://www.w3.org/1999/xlink" x="0px" y="0px"
	 width="1000px" height="1000px" viewBox="0 0 1000 1000" enable-background="new 0 0 1000 1000" xml:space="preserve">
<g id="angry">
	<g>
		<path fill-rule="evenodd" clip-rule="evenodd" d="M694.446,280.294c-45.953,0-83.336,37.383-83.337,83.335
			c0,0.001,0.001,0.002,0.001,0.004c0.001,15.341,12.438,27.774,27.777,27.774c15.34,0,27.777-12.435,27.777-27.777
			c0-0.001,0-0.001,0-0.001c0-0.001,0-0.001,0-0.002c0-9.025,4.396-16.979,11.085-22.057c0.405-0.308,0.753-0.685,1.175-0.97
			c0.62-0.419,1.325-0.706,1.979-1.075c0.905-0.512,1.774-1.081,2.739-1.489c0.409-0.173,0.863-0.245,1.282-0.399
			c1.282-0.471,2.566-0.942,3.929-1.222c1.807-0.371,3.677-0.565,5.592-0.565c15.343,0,27.777-12.436,27.777-27.778
			S709.789,280.294,694.446,280.294z M305.555,280.294c-15.344,0-27.778,12.435-27.778,27.777s12.435,27.778,27.778,27.778
			c1.914,0,3.784,0.194,5.591,0.565c1.362,0.279,2.646,0.751,3.929,1.222c0.419,0.154,0.873,0.227,1.282,0.399
			c0.965,0.408,1.834,0.978,2.74,1.489c0.653,0.369,1.358,0.656,1.979,1.075c0.422,0.285,0.77,0.662,1.175,0.97
			c6.689,5.077,11.085,13.031,11.085,22.057c0,0.001,0,0.001,0,0.002c0,0,0,0,0,0.001c0,15.343,12.438,27.777,27.777,27.777
			s27.776-12.434,27.777-27.774c0-0.002,0.001-0.003,0.001-0.004C388.89,317.677,351.507,280.294,305.555,280.294z M361.111,444.444
			c-15.342,0-27.778,12.437-27.778,27.778v111.11c0,15.342,12.437,27.778,27.778,27.778c15.341,0,27.777-12.437,27.777-27.778
			v-111.11C388.889,456.881,376.452,444.444,361.111,444.444z M638.889,444.444c-15.341,0-27.777,12.437-27.777,27.778v111.11
			c0,15.342,12.437,27.778,27.777,27.778c15.342,0,27.778-12.437,27.778-27.778v-111.11
			C666.667,456.881,654.23,444.444,638.889,444.444z"/>
	</g>
</g>
</svg>
