<?xml version="1.0" encoding="utf-8"?>
<!-- Generator: Adobe Illustrator 15.0.2, SVG Export Plug-In . SVG Version: 6.00 Build 0)  -->
<!DOCTYPE svg PUBLIC "-//W3C//DTD SVG 1.1//EN" "http://www.w3.org/Graphics/SVG/1.1/DTD/svg11.dtd">
<svg version="1.1" id="wince_1_" xmlns="http://www.w3.org/2000/svg" xmlns:xlink="http://www.w3.org/1999/xlink" x="0px" y="0px"
	 width="1000px" height="1000px" viewBox="0 0 1000 1000" enable-background="new 0 0 1000 1000" xml:space="preserve">
<g id="wince">
	<g>
		<path fill-rule="evenodd" clip-rule="evenodd" d="M443.703,521.341c-0.064-0.265-0.108-0.527-0.182-0.791
			c-1.966-7.449-6.895-14.076-14.327-17.793l-111.113-55.553c-3.984-1.996-8.225-2.94-12.399-2.94
			c-10.192,0-20.001,5.626-24.867,15.359c-6.86,13.721-1.3,30.409,12.424,37.267l61.771,30.888l-61.771,30.889
			c-13.724,6.857-19.284,23.546-12.424,37.267c4.866,9.733,14.675,15.359,24.867,15.359c4.175,0,8.415-0.944,12.399-2.94
			l111.113-55.553c7.433-3.717,12.361-10.344,14.327-17.793c0.073-0.264,0.117-0.526,0.182-0.791c0.31-1.325,0.548-2.653,0.66-4.017
			c0.076-0.812,0.076-1.611,0.081-2.421c-0.005-0.809-0.005-1.609-0.081-2.42C444.251,523.994,444.013,522.666,443.703,521.341z
			 M706.762,558.666l-61.771-30.889l61.771-30.888c13.724-6.857,19.284-23.546,12.424-37.267
			c-4.866-9.733-14.676-15.359-24.867-15.359c-4.175,0-8.415,0.944-12.399,2.94l-111.113,55.553
			c-7.433,3.717-12.361,10.344-14.327,17.793c-0.073,0.264-0.117,0.526-0.182,0.791c-0.309,1.325-0.548,2.653-0.66,4.017
			c-0.076,0.811-0.076,1.611-0.081,2.42c0.005,0.81,0.005,1.609,0.081,2.421c0.112,1.362,0.352,2.691,0.66,4.017
			c0.064,0.265,0.108,0.527,0.182,0.791c1.966,7.449,6.895,14.076,14.327,17.793l111.113,55.553c3.984,1.996,8.225,2.94,12.399,2.94
			c10.191,0,20.001-5.626,24.867-15.359C726.046,582.212,720.485,565.523,706.762,558.666z"/>
	</g>
</g>
</svg>
