<?xml version="1.0" encoding="utf-8"?>
<!-- Generator: Adobe Illustrator 15.0.2, SVG Export Plug-In . SVG Version: 6.00 Build 0)  -->
<!DOCTYPE svg PUBLIC "-//W3C//DTD SVG 1.1//EN" "http://www.w3.org/Graphics/SVG/1.1/DTD/svg11.dtd">
<svg version="1.1" id="shocked_1_" xmlns="http://www.w3.org/2000/svg" xmlns:xlink="http://www.w3.org/1999/xlink" x="0px" y="0px"
	 width="1000px" height="1000px" viewBox="0 0 1000 1000" enable-background="new 0 0 1000 1000" xml:space="preserve">
<g id="shocked">
	<g>
		<path fill-rule="evenodd" clip-rule="evenodd" d="M638.889,444.444c-15.341,0-27.777,12.437-27.777,27.778v111.11
			c0,15.342,12.437,27.778,27.777,27.778c15.342,0,27.778-12.437,27.778-27.778v-111.11
			C666.667,456.881,654.23,444.444,638.889,444.444z M361.111,444.444c-15.342,0-27.778,12.437-27.778,27.778v111.11
			c0,15.342,12.437,27.778,27.778,27.778c15.341,0,27.777-12.437,27.777-27.778v-111.11
			C388.889,456.881,376.452,444.444,361.111,444.444z M333.334,361.107c-0.001-15.342-12.438-27.775-27.777-27.775
			s-27.777,12.435-27.777,27.777c0,0.001,0,0.001,0,0.002v0.001c0,9.025-4.396,16.979-11.085,22.057
			c-0.405,0.308-0.753,0.685-1.175,0.97c-0.62,0.42-1.325,0.707-1.979,1.076c-0.906,0.511-1.775,1.08-2.74,1.489
			c-0.408,0.173-0.863,0.244-1.282,0.398c-1.282,0.472-2.566,0.942-3.929,1.223c-1.807,0.37-3.677,0.565-5.591,0.565
			c-15.343,0-27.778,12.435-27.778,27.777s12.436,27.777,27.778,27.777c45.952,0,83.335-37.382,83.336-83.334
			C333.335,361.109,333.334,361.108,333.334,361.107z M750.001,388.891c-1.914,0-3.784-0.195-5.591-0.565
			c-1.362-0.28-2.646-0.751-3.929-1.223c-0.419-0.154-0.874-0.226-1.282-0.398c-0.965-0.409-1.834-0.979-2.74-1.489
			c-0.653-0.369-1.358-0.656-1.979-1.076c-0.422-0.285-0.77-0.662-1.175-0.97c-6.689-5.077-11.085-13.031-11.085-22.057v-0.001
			c0-0.001,0-0.001,0-0.002c0-15.343-12.438-27.777-27.777-27.777s-27.776,12.434-27.777,27.775l-0.001,0.004
			c0.001,45.952,37.384,83.334,83.336,83.334c15.343,0,27.778-12.435,27.778-27.777S765.344,388.891,750.001,388.891z"/>
	</g>
</g>
</svg>
