<?xml version="1.0" encoding="utf-8"?>
<!-- Generator: Adobe Illustrator 15.0.2, SVG Export Plug-In . SVG Version: 6.00 Build 0)  -->
<!DOCTYPE svg PUBLIC "-//W3C//DTD SVG 1.1//EN" "http://www.w3.org/Graphics/SVG/1.1/DTD/svg11.dtd">
<svg version="1.1" id="tongue_1_" xmlns="http://www.w3.org/2000/svg" xmlns:xlink="http://www.w3.org/1999/xlink" x="0px" y="0px"
	 width="1000px" height="1000px" viewBox="0 0 1000 1000" enable-background="new 0 0 1000 1000" xml:space="preserve">
<g id="tongue">
	<g>
		<path fill-rule="evenodd" clip-rule="evenodd" d="M638.889,777.776c-2.104,0-211.895-1.177-313.69-102.976
			c-10.851-10.846-28.435-10.846-39.285,0c-10.848,10.848-10.848,28.437,0,39.285c14.393,14.393,30.407,27.021,47.42,38.15v53.319
			c0,46.023,37.31,83.333,83.334,83.333c42.109,0,76.831-31.265,82.447-71.829c74.086,15.885,134.918,16.272,139.774,16.272
			c15.343,0,27.778-12.436,27.778-27.777C666.667,790.211,654.231,777.776,638.889,777.776z"/>
	</g>
</g>
</svg>
