<?xml version="1.0" encoding="utf-8"?>
<!-- Generator: Adobe Illustrator 15.0.2, SVG Export Plug-In . SVG Version: 6.00 Build 0)  -->
<!DOCTYPE svg PUBLIC "-//W3C//DTD SVG 1.1//EN" "http://www.w3.org/Graphics/SVG/1.1/DTD/svg11.dtd">
<svg version="1.1" id="star_1_" xmlns="http://www.w3.org/2000/svg" xmlns:xlink="http://www.w3.org/1999/xlink" x="0px" y="0px"
	 width="1000px" height="1000px" viewBox="0 0 1000 1000" enable-background="new 0 0 1000 1000" xml:space="preserve">
<g id="star">
	<g>
		<path fill-rule="evenodd" clip-rule="evenodd" d="M865.295,405.554c6.549-6.379,8.903-15.926,6.079-24.618
			c-2.823-8.696-10.348-15.034-19.392-16.347l-190.844-27.732c-23.473-3.411-43.756-18.145-54.255-39.413l-85.346-172.938
			c-4.053-8.2-12.397-13.388-21.54-13.388c-9.144,0-17.492,5.192-21.536,13.388l-85.351,172.938
			c-10.498,21.269-30.777,36.002-54.25,39.413l-190.844,27.732c-9.049,1.312-16.563,7.65-19.387,16.347
			c-2.829,8.692-0.47,18.239,6.074,24.618L272.8,540.159c16.986,16.559,24.735,40.406,20.724,63.776L260.923,794.01
			c-1.549,9.017,2.157,18.116,9.55,23.492c7.397,5.366,17.188,6.089,25.293,1.829l170.702-89.736
			c20.592-10.836,46.448-10.836,67.06,0l170.702,89.746c3.508,1.849,7.345,2.758,11.174,2.758c4.973,0,9.936-1.548,14.119-4.587
			c7.393-5.376,11.099-14.476,9.55-23.492l-32.601-190.074c-4.007-23.38,3.742-47.228,20.724-63.786L865.295,405.554z
			 M444.444,527.778c0,15.341-12.437,27.777-27.777,27.777c-15.342,0-27.778-12.437-27.778-27.777V416.667
			c0-15.342,12.437-27.778,27.778-27.778c15.341,0,27.777,12.437,27.777,27.778V527.778z M611.111,527.778
			c0,15.341-12.437,27.777-27.778,27.777c-15.341,0-27.777-12.437-27.777-27.777V416.667c0-15.342,12.437-27.778,27.777-27.778
			c15.342,0,27.778,12.437,27.778,27.778V527.778z"/>
	</g>
</g>
</svg>
