<?xml version="1.0" encoding="utf-8"?>
<!-- Generator: Adobe Illustrator 15.0.2, SVG Export Plug-In . SVG Version: 6.00 Build 0)  -->
<!DOCTYPE svg PUBLIC "-//W3C//DTD SVG 1.1//EN" "http://www.w3.org/Graphics/SVG/1.1/DTD/svg11.dtd">
<svg version="1.1" id="disapproval_1_" xmlns="http://www.w3.org/2000/svg" xmlns:xlink="http://www.w3.org/1999/xlink" x="0px"
	 y="0px" width="1000px" height="1000px" viewBox="0 0 1000 1000" enable-background="new 0 0 1000 1000" xml:space="preserve">
<g id="disapproval">
	<g>
		<path fill-rule="evenodd" clip-rule="evenodd" d="M694.444,500c-15.341,0-27.777,12.437-27.777,27.777
			c0,15.342,12.437,27.778,27.777,27.778c15.342,0,27.778-12.437,27.778-27.778C722.223,512.437,709.786,500,694.444,500z
			 M305.556,500c-15.341,0-27.778,12.437-27.778,27.777c0,15.342,12.438,27.778,27.778,27.778s27.777-12.437,27.777-27.778
			C333.333,512.437,320.896,500,305.556,500z M833.335,361.111c0-0.002-0.001-0.003-0.001-0.004
			c-0.001-15.342-12.438-27.775-27.777-27.775s-27.777,12.435-27.777,27.777c0,0.001,0,0.001,0,0.002v0.001
			c0,9.025-4.396,16.979-11.085,22.057c-0.405,0.308-0.753,0.685-1.175,0.97c-0.62,0.42-1.325,0.707-1.979,1.076
			c-0.906,0.511-1.775,1.08-2.74,1.488c-0.408,0.174-0.863,0.245-1.282,0.399c-1.282,0.472-2.566,0.942-3.929,1.223
			c-1.798,0.368-3.659,0.562-5.563,0.564c-0.009,0-0.018-0.001-0.026-0.001H583.333c-15.341,0-27.777,12.437-27.777,27.778
			c0,15.339,12.434,27.774,27.771,27.777c-17.437,23.213-27.771,52.065-27.771,83.333c0,76.707,62.183,138.89,138.889,138.89
			s138.889-62.183,138.889-138.89c0-37.377-14.769-71.303-38.785-96.269C817.842,416.716,833.334,390.69,833.335,361.111z
			 M694.444,611.111c-46.023,0-83.333-37.31-83.333-83.334c0-46.023,37.31-83.333,83.333-83.333s83.333,37.31,83.333,83.333
			C777.777,573.802,740.468,611.111,694.444,611.111z M416.668,333.332c-15.34,0-27.777,12.435-27.777,27.777
			c0,0.001,0,0.001,0,0.002v0.001c0,9.025-4.396,16.979-11.085,22.057c-0.405,0.308-0.753,0.685-1.175,0.97
			c-0.62,0.42-1.325,0.707-1.979,1.076c-0.905,0.511-1.774,1.08-2.739,1.488c-0.409,0.174-0.863,0.245-1.282,0.399
			c-1.282,0.472-2.566,0.942-3.929,1.223c-1.798,0.368-3.659,0.562-5.563,0.564c-0.009,0-0.018-0.001-0.026-0.001H194.444
			c-15.341,0-27.777,12.437-27.777,27.778c0,15.339,12.433,27.774,27.771,27.777c-17.437,23.213-27.771,52.065-27.771,83.333
			c0,76.707,62.183,138.89,138.889,138.89s138.889-62.183,138.889-138.89c0-37.377-14.77-71.303-38.785-96.269
			c23.294-14.793,38.786-40.818,38.786-70.397v-0.004C444.444,345.766,432.008,333.332,416.668,333.332z M305.556,611.111
			c-46.023,0-83.333-37.31-83.333-83.334c0-46.023,37.31-83.333,83.333-83.333s83.333,37.31,83.333,83.333
			C388.889,573.802,351.579,611.111,305.556,611.111z"/>
	</g>
</g>
</svg>
