<?xml version="1.0" encoding="utf-8"?>
<!-- Generator: Adobe Illustrator 15.0.2, SVG Export Plug-In . SVG Version: 6.00 Build 0)  -->
<!DOCTYPE svg PUBLIC "-//W3C//DTD SVG 1.1//EN" "http://www.w3.org/Graphics/SVG/1.1/DTD/svg11.dtd">
<svg version="1.1" id="happy_1_" xmlns="http://www.w3.org/2000/svg" xmlns:xlink="http://www.w3.org/1999/xlink" x="0px" y="0px"
	 width="1000px" height="1000px" viewBox="0 0 1000 1000" enable-background="new 0 0 1000 1000" xml:space="preserve">
<g id="happy">
	<g>
		<path fill-rule="evenodd" clip-rule="evenodd" d="M433.021,541.217c-0.153-0.264-0.283-0.539-0.438-0.802
			c-0.579-0.968-1.212-1.883-1.824-2.818c-0.122-0.184-0.238-0.374-0.36-0.558c-0.77-1.161-1.522-2.332-2.354-3.457
			c-0.825-1.115-1.712-2.162-2.584-3.226c-0.243-0.298-0.491-0.591-0.739-0.885c-0.613-0.757-1.218-1.52-1.874-2.245
			c-0.214-0.235-0.445-0.447-0.664-0.676c-0.719-0.775-1.468-1.512-2.212-2.256c-0.965-0.965-1.907-1.947-2.926-2.869
			c-1.014-0.918-2.082-1.757-3.135-2.618c-0.958-0.786-1.905-1.58-2.904-2.327c-0.108-0.082-0.207-0.173-0.316-0.253
			c-1.126-0.832-2.299-1.586-3.462-2.357c-0.382-0.254-0.771-0.501-1.158-0.749c-0.73-0.485-1.453-0.978-2.213-1.432
			c-0.443-0.265-0.905-0.491-1.355-0.742c-0.905-0.517-1.817-1.018-2.739-1.499c-0.999-0.524-1.995-1.059-3.006-1.538
			c-1.347-0.636-2.724-1.195-4.1-1.757c-0.278-0.112-0.55-0.245-0.829-0.355c-0.379-0.15-0.759-0.294-1.138-0.443
			c-0.416-0.158-0.828-0.334-1.245-0.485c-1.346-0.486-2.718-0.89-4.086-1.307c-0.473-0.142-0.936-0.315-1.41-0.45
			c-0.718-0.205-1.434-0.415-2.153-0.6c-1.84-0.472-3.699-0.864-5.568-1.211c-0.826-0.151-1.651-0.305-2.48-0.432
			c-1.693-0.262-3.397-0.451-5.106-0.609c-1.094-0.098-2.187-0.189-3.28-0.243c-1.139-0.061-2.281-0.064-3.424-0.078
			c-0.271-0.002-0.54-0.018-0.812-0.019c-0.438,0.001-0.874,0.024-1.312,0.03c-0.991,0.017-1.984,0.015-2.974,0.067
			c-0.814,0.041-1.628,0.117-2.442,0.182c-0.263,0.022-0.524,0.035-0.787,0.059c-0.363,0.033-0.723,0.093-1.086,0.129
			c-1.359,0.144-2.72,0.277-4.068,0.486c-0.732,0.111-1.462,0.249-2.192,0.381c-0.08,0.015-0.161,0.027-0.241,0.042
			c-1.884,0.349-3.757,0.744-5.611,1.221c-0.706,0.181-1.408,0.387-2.112,0.587c-0.864,0.247-1.712,0.551-2.569,0.821
			c-0.988,0.316-1.987,0.596-2.964,0.948c-0.129,0.047-0.257,0.103-0.386,0.15c-0.655,0.246-1.309,0.505-1.962,0.765
			c-1.672,0.661-3.331,1.356-4.96,2.125c-1.002,0.476-1.988,1.005-2.979,1.524c-1.387,0.724-2.771,1.451-4.119,2.255
			c-1.15,0.688-2.245,1.433-3.351,2.167c-0.227,0.15-0.449,0.307-0.675,0.46c-0.943,0.622-1.893,1.235-2.806,1.909
			c-0.649,0.481-1.26,0.999-1.88,1.507c-0.447,0.352-0.891,0.705-1.329,1.064c-1.056,0.864-2.127,1.705-3.144,2.625
			c-1.019,0.923-1.962,1.906-2.927,2.872c-0.103,0.102-0.202,0.206-0.304,0.31c-0.866,0.859-1.743,1.706-2.568,2.617
			c-0.899,0.994-1.723,2.041-2.567,3.075c-0.019,0.022-0.038,0.045-0.058,0.068c-0.867,1.059-1.75,2.1-2.571,3.209
			c-0.524,0.712-1.001,1.452-1.487,2.187c-0.297,0.43-0.594,0.859-0.882,1.294c-0.734,1.105-1.479,2.2-2.167,3.351
			c-0.013,0.021-0.023,0.043-0.035,0.064c-0.413,0.699-0.774,1.425-1.169,2.135c-3.401,6.54-3.967,13.861-2.079,20.485
			c0.057,0.193,0.152,0.374,0.212,0.567c0.445,1.441,0.973,2.859,1.648,4.214c0.241,0.479,0.575,0.912,0.845,1.379
			c0.595,1.036,1.178,2.08,1.909,3.039c0.576,0.751,1.286,1.407,1.944,2.102c0.567,0.602,1.066,1.253,1.693,1.808
			c1.364,1.202,2.861,2.293,4.496,3.237c13.285,7.67,30.274,3.12,37.945-10.168c0.39-0.674,0.856-1.269,1.302-1.885
			c0.934-1.354,2.01-2.605,3.191-3.789c1.296-1.299,2.733-2.468,4.314-3.514c0.471-0.311,0.865-0.694,1.36-0.979
			c0.293-0.17,0.61-0.251,0.907-0.408c1.998-1.06,4.065-1.806,6.174-2.339c0.097-0.024,0.192-0.043,0.289-0.065
			c2.162-0.522,4.337-0.787,6.52-0.783c2.674,0.005,5.313,0.333,7.861,1.086c1.267,0.375,2.513,0.853,3.742,1.396
			c0.374,0.172,0.738,0.351,1.105,0.539c0.392,0.196,0.794,0.352,1.179,0.574c0.494,0.285,0.907,0.652,1.36,0.979
			c0.798,0.525,1.576,1.063,2.321,1.673c1.388,1.137,2.667,2.413,3.833,3.834c0.61,0.745,1.147,1.523,1.673,2.321
			c0.311,0.47,0.694,0.865,0.979,1.359c7.672,13.288,24.658,17.839,37.945,10.168c1.636-0.944,3.133-2.036,4.497-3.238
			c0.628-0.555,1.128-1.207,1.695-1.809c0.657-0.694,1.367-1.351,1.943-2.102c0.732-0.959,1.315-2.004,1.911-3.041
			c0.269-0.466,0.603-0.897,0.844-1.378c0.677-1.355,1.203-2.774,1.648-4.217c0.061-0.192,0.155-0.372,0.211-0.565
			c1.888-6.625,1.32-13.948-2.084-20.489C433.522,542.141,433.271,541.679,433.021,541.217z M711.557,542.6
			c-0.404-0.726-0.771-1.47-1.196-2.185c-0.693-1.159-1.443-2.263-2.184-3.376c-0.771-1.161-1.523-2.332-2.354-3.457
			c-0.825-1.115-1.713-2.162-2.585-3.226c-0.86-1.051-1.697-2.118-2.613-3.13c-0.924-1.021-1.908-1.965-2.875-2.932
			c-0.965-0.965-1.908-1.947-2.926-2.869c-1.014-0.918-2.083-1.757-3.136-2.618c-1.062-0.871-2.106-1.757-3.22-2.58
			c-1.127-0.832-2.3-1.586-3.462-2.357c-1.112-0.739-2.214-1.488-3.372-2.181c-1.339-0.798-2.716-1.521-4.095-2.241
			c-0.999-0.524-1.994-1.059-3.005-1.538c-1.619-0.764-3.268-1.454-4.93-2.112c-0.793-0.315-1.584-0.64-2.382-0.929
			c-1.811-0.653-3.646-1.229-5.497-1.757c-0.717-0.205-1.433-0.415-2.152-0.6c-1.841-0.472-3.699-0.864-5.568-1.211
			c-0.826-0.151-1.652-0.305-2.48-0.432c-1.693-0.262-3.398-0.451-5.106-0.609c-1.094-0.098-2.188-0.189-3.281-0.243
			c-1.408-0.074-2.821-0.094-4.234-0.097c-1.432,0.002-2.86,0.022-4.286,0.098c-1.077,0.054-2.153,0.145-3.23,0.24
			c-1.725,0.158-3.445,0.351-5.154,0.615c-0.812,0.124-1.623,0.274-2.434,0.423c-1.883,0.349-3.757,0.744-5.611,1.221
			c-0.706,0.181-1.408,0.387-2.111,0.587c-1.862,0.531-3.711,1.111-5.533,1.77c-0.787,0.285-1.566,0.604-2.349,0.915
			c-1.672,0.661-3.331,1.356-4.96,2.125c-1.001,0.476-1.988,1.005-2.978,1.524c-1.388,0.724-2.772,1.451-4.12,2.255
			c-1.15,0.688-2.244,1.433-3.35,2.167c-1.17,0.775-2.349,1.533-3.48,2.369c-1.109,0.821-2.15,1.704-3.209,2.571
			c-1.057,0.864-2.127,1.705-3.144,2.625c-1.02,0.923-1.962,1.906-2.928,2.872c-0.966,0.965-1.948,1.908-2.871,2.927
			c-0.92,1.017-1.762,2.088-2.625,3.144c-0.868,1.059-1.751,2.1-2.571,3.209c-0.837,1.133-1.595,2.312-2.369,3.48
			c-0.735,1.105-1.479,2.2-2.168,3.351c-0.429,0.719-0.797,1.468-1.203,2.199c-6.82,13.112-2.256,29.369,10.669,36.831
			c13.285,7.67,30.273,3.12,37.945-10.168c0.285-0.494,0.668-0.889,0.979-1.359c0.524-0.798,1.062-1.576,1.673-2.321
			c0.581-0.708,1.201-1.355,1.84-1.993c0.639-0.64,1.285-1.26,1.993-1.841c0.746-0.61,1.523-1.147,2.322-1.673
			c0.47-0.311,0.865-0.694,1.359-0.979c0.294-0.17,0.61-0.251,0.907-0.408c0.81-0.428,1.643-0.774,2.487-1.119
			c0.874-0.358,1.739-0.718,2.631-0.981c0.793-0.235,1.599-0.381,2.409-0.544c0.944-0.188,1.879-0.387,2.829-0.476
			c0.873-0.084,1.746-0.065,2.626-0.067c0.88,0.002,1.752-0.017,2.624,0.067c0.95,0.089,1.886,0.287,2.831,0.476
			c0.81,0.164,1.615,0.309,2.407,0.543c0.893,0.265,1.758,0.624,2.632,0.982c0.844,0.345,1.677,0.691,2.486,1.119
			c0.297,0.157,0.614,0.238,0.907,0.408c0.495,0.285,0.891,0.669,1.36,0.979c0.798,0.525,1.576,1.063,2.321,1.673
			c0.708,0.581,1.355,1.201,1.993,1.841c0.64,0.638,1.26,1.285,1.841,1.993c0.609,0.745,1.147,1.523,1.672,2.321
			c0.312,0.47,0.695,0.865,0.98,1.359c7.671,13.288,24.658,17.839,37.945,10.168C713.819,571.974,718.382,555.714,711.557,542.6z"/>
	</g>
</g>
</svg>
