<?xml version="1.0" encoding="utf-8"?>
<!-- Generator: Adobe Illustrator 15.0.2, SVG Export Plug-In . SVG Version: 6.00 Build 0)  -->
<!DOCTYPE svg PUBLIC "-//W3C//DTD SVG 1.1//EN" "http://www.w3.org/Graphics/SVG/1.1/DTD/svg11.dtd">
<svg version="1.1" id="standard_1_" xmlns="http://www.w3.org/2000/svg" xmlns:xlink="http://www.w3.org/1999/xlink" x="0px"
	 y="0px" width="1000px" height="1000px" viewBox="0 0 1000 1000" enable-background="new 0 0 1000 1000" xml:space="preserve">
<g id="standard">
	<g>
		<path fill-rule="evenodd" clip-rule="evenodd" d="M361.111,444.444c-15.342,0-27.778,12.437-27.778,27.778v111.11
			c0,15.342,12.437,27.778,27.778,27.778c15.341,0,27.777-12.437,27.777-27.778v-111.11
			C388.889,456.881,376.452,444.444,361.111,444.444z M638.889,444.444c-15.341,0-27.777,12.437-27.777,27.778v111.11
			c0,15.342,12.437,27.778,27.777,27.778c15.342,0,27.778-12.437,27.778-27.778v-111.11
			C666.667,456.881,654.23,444.444,638.889,444.444z"/>
	</g>
</g>
</svg>
