<?xml version="1.0" encoding="utf-8"?>
<!-- Generator: Adobe Illustrator 15.0.2, SVG Export Plug-In . SVG Version: 6.00 Build 0)  -->
<!DOCTYPE svg PUBLIC "-//W3C//DTD SVG 1.1//EN" "http://www.w3.org/Graphics/SVG/1.1/DTD/svg11.dtd">
<svg version="1.1" id="crying_1_" xmlns="http://www.w3.org/2000/svg" xmlns:xlink="http://www.w3.org/1999/xlink" x="0px" y="0px"
	 width="1000px" height="1000px" viewBox="0 0 1000 1000" enable-background="new 0 0 1000 1000" xml:space="preserve">
<g id="crying">
	<g>
		<path fill-rule="evenodd" clip-rule="evenodd" d="M361.111,444.444c-15.342,0-27.778,12.437-27.778,27.778v55.555
			c0,15.342,12.437,27.778,27.778,27.778c15.341,0,27.777-12.437,27.777-27.778v-55.555
			C388.889,456.881,376.452,444.444,361.111,444.444z M333.334,361.107c-0.001-15.342-12.438-27.775-27.777-27.775
			s-27.777,12.435-27.777,27.777c0,0.001,0,0.001,0,0.002v0.001c0,9.025-4.396,16.979-11.085,22.057
			c-0.405,0.308-0.753,0.685-1.175,0.97c-0.62,0.42-1.325,0.707-1.979,1.076c-0.906,0.511-1.775,1.08-2.74,1.489
			c-0.408,0.173-0.863,0.244-1.282,0.398c-1.282,0.472-2.566,0.942-3.929,1.223c-1.807,0.37-3.677,0.565-5.591,0.565
			c-15.343,0-27.778,12.435-27.778,27.777s12.436,27.777,27.778,27.777c45.952,0,83.335-37.382,83.336-83.334
			C333.335,361.109,333.334,361.108,333.334,361.107z M750.001,388.891c-1.914,0-3.784-0.195-5.591-0.565
			c-1.362-0.28-2.646-0.751-3.929-1.223c-0.419-0.154-0.874-0.226-1.282-0.398c-0.965-0.409-1.834-0.979-2.74-1.489
			c-0.653-0.369-1.358-0.656-1.979-1.076c-0.422-0.285-0.77-0.662-1.175-0.97c-6.689-5.077-11.085-13.031-11.085-22.057v-0.001
			c0-0.001,0-0.001,0-0.002c0-15.343-12.438-27.777-27.777-27.777s-27.776,12.434-27.777,27.775c0,0.001-0.001,0.002-0.001,0.004
			c0.001,45.952,37.384,83.334,83.336,83.334c15.343,0,27.778-12.435,27.778-27.777S765.344,388.891,750.001,388.891z
			 M638.889,557.672l-26.103,71.717c-2.467,6.779-2.045,13.861,0.504,20.044c0.376,0.915,0.812,1.786,1.272,2.638
			c0.413,0.763,0.836,1.52,1.319,2.242c0.508,0.759,1.07,1.466,1.645,2.163c0.565,0.688,1.14,1.369,1.772,2.003
			c0.635,0.634,1.315,1.208,2.004,1.773c0.696,0.574,1.404,1.136,2.163,1.645c0.723,0.483,1.479,0.906,2.241,1.319
			c0.853,0.461,1.724,0.896,2.638,1.272c0.774,0.319,1.566,0.591,2.368,0.84c0.952,0.294,1.908,0.539,2.867,0.728
			c0.848,0.166,1.701,0.296,2.565,0.383c0.918,0.092,1.831,0.133,2.743,0.132c0.912,0.001,1.826-0.04,2.744-0.132
			c0.863-0.087,1.718-0.217,2.564-0.383c0.96-0.188,1.915-0.434,2.868-0.728c0.802-0.249,1.593-0.521,2.367-0.84
			c0.915-0.377,1.786-0.812,2.638-1.272c0.763-0.413,1.52-0.836,2.242-1.319c0.759-0.509,1.466-1.07,2.163-1.645
			c0.688-0.565,1.369-1.14,2.003-1.773s1.208-1.314,1.773-2.003c0.574-0.697,1.136-1.404,1.645-2.163
			c0.483-0.723,0.906-1.479,1.319-2.242c0.461-0.852,0.896-1.723,1.272-2.638c2.548-6.183,2.971-13.265,0.503-20.044
			L638.889,557.672z M638.889,444.444c-15.341,0-27.777,12.437-27.777,27.778v55.555c0,15.342,12.437,27.778,27.777,27.778
			c15.342,0,27.778-12.437,27.778-27.778v-55.555C666.667,456.881,654.23,444.444,638.889,444.444z"/>
	</g>
</g>
</svg>
